<svg xmlns="http://www.w3.org/2000/svg" xmlns:xlink="http://www.w3.org/1999/xlink" id="Camada_1" x="0" y="0" version="1.1" viewBox="0 0 742.7 263.5" xml:space="preserve"><style>.st0{fill-rule:evenodd;clip-rule:evenodd;fill:#fff}</style><g><path d="M90.6 205.9c0 1.9-.9 2.9-2.8 2.9h-18v34.9c0 1.9-.9 2.9-2.8 2.9-2 0-3.2-.1-3.6-.2-1.1-.3-1.7-1.2-1.7-2.7v-34.9H44c-1.9 0-2.9-1-2.9-2.9 0-1.3.1-2.2.4-2.7.4-.7 1.2-1 2.4-1h43.8c1.2 0 2 .3 2.4 1 .4.6.5 1.5.5 2.7zm68.5 36.9c0 2.5-.9 3.8-2.8 3.8h-28.9c-4.5 0-8.3-.8-11.6-2.3-4.3-2-6.5-4.9-6.5-8.8v-22c0-2.2.7-4.1 2.1-5.8 3.1-3.7 8.6-5.5 16.6-5.5h7.9c1.9 0 2.8.9 2.8 2.8v.9c0 1.9-.9 2.9-2.8 2.9-.1 0-.8 0-2.1-.1-1.2 0-2.3-.1-3.3-.1-8.9 0-13.3 1.6-13.3 4.8v7.7h39c2 0 3 1 3 3.1 0 .9-.2 1.7-.8 2.4-.6.8-1.3 1.1-2.3 1.1h-39v7.3c0 3.1 3.5 4.7 10.4 4.7h28.6c2 .2 3 1.1 3 3.1zm69.8-36.9c0 1.9-.9 2.9-2.8 2.9h-28.8c-7 0-10.5 1.4-10.5 4.2v21.9c0 3.3 3.9 4.9 11.6 4.9h27.5c2 0 2.9 1.1 2.9 3.3s-1 3.3-2.9 3.3h-27.5c-3.7 0-6.4-.2-8-.4-1.7-.3-3.6-1-5.6-2-2.2-1.1-3.7-2.3-4.6-3.6-1-1.4-1.5-3.2-1.5-5.4v-22c0-2.8 1.3-5.1 3.9-7.1 2.2-1.6 4.8-2.7 7.8-3.3 1.6-.3 3.8-.4 6.8-.4H226c1.2 0 2 .3 2.4 1.1.3.5.5 1.4.5 2.6zm73.5 35.9c0 3.4-1.5 5.1-4.4 5.1-.3 0-.6 0-.9-.1-1-.1-2.2-.8-3.7-2.1l-37.7-32.1v31c0 1.5-.6 2.3-1.7 2.7-.4.1-1.6.2-3.6.2-1.9 0-2.8-1-2.8-2.9v-37c0-1.3.1-2.1.3-2.5.2-.6.8-1.2 1.8-1.8.6-.3 1.3-.5 2.1-.5 1.8 0 3.6.8 5.4 2.3l37.2 31.7V205c0-1.5.6-2.4 1.7-2.7.4-.1 1.6-.1 3.5-.1s2.9.9 2.9 2.8v36.8h-.1zm72.2-7.2c0 7.9-6.9 11.9-20.6 11.9h-12.6c-5.3 0-9.7-.7-13.1-2.1-4.9-2-7.4-5.2-7.4-9.7v-20.4c0-8 6.8-12 20.5-12H354c6.2 0 10.8.6 13.6 1.7 4.6 1.8 6.9 5.2 6.9 10.3v20.3h.1zm-8.1-.1v-20c0-3.7-4.1-5.6-12.3-5.6h-12.8c-8.2 0-12.4 1.9-12.4 5.6v20c0 3.6 4.1 5.4 12.4 5.4h12.9c8.2 0 12.2-1.8 12.2-5.4zm77.1 9.2c0 1.9-.9 2.9-2.8 2.9h-25.4c-4.4 0-7.8-.2-9.9-.5-4-.6-7-1.9-9-3.7-2.1-1.9-3.1-4.4-3.1-7.4v-29.8c0-1.9.9-2.8 2.8-2.8 2 0 3.2 0 3.5.1 1.1.3 1.7 1.2 1.7 2.7V235c0 2.4 1.9 3.9 5.6 4.6 1.5.3 4.3.4 8.3.4h25.5c1.2 0 2 .4 2.4 1.1.2.4.4 1.3.4 2.6zm72.2-9.1c0 7.9-6.9 11.9-20.6 11.9h-12.6c-5.3 0-9.7-.7-13.1-2.1-4.9-2-7.4-5.2-7.4-9.7v-20.4c0-8 6.8-12 20.5-12h12.6c6.2 0 10.8.6 13.6 1.7 4.6 1.8 6.9 5.2 6.9 10.3l.1 20.3zm-8.1-.1v-20c0-3.7-4.1-5.6-12.3-5.6h-12.8c-8.2 0-12.4 1.9-12.4 5.6v20c0 3.6 4.1 5.4 12.4 5.4h12.9c8.2 0 12.2-1.8 12.2-5.4zm81.4.8c0 4-2 7-6 9-3.1 1.5-6.9 2.3-11.4 2.3h-18.3c-4.8 0-8.9-.7-12.1-2.1-4.5-1.9-6.8-4.9-6.8-9.1v-22.2c0-3.9 2.3-6.9 7-8.8 3.4-1.4 7.4-2.1 12-2.1h7.3c2 0 3 1.1 3 3.3s-1 3.3-3 3.3c-.1 0-.8 0-2-.1-1.2 0-2.2-.1-3.1-.1-8.7 0-13 1.5-13 4.5v22.2c0 3 3.6 4.5 10.9 4.5h18.2c1.7 0 3.5-.3 5.5-1 2.5-.8 3.8-2 3.8-3.4v-11.4c0-1.5.6-2.3 1.8-2.7.4-.1 1.5-.2 3.5-.2 1.9 0 2.8.9 2.8 2.8v11.3h-.1zm26.7 8.4c0 1.9-.9 2.9-2.8 2.9-2 0-3.2-.1-3.6-.2-1.1-.3-1.7-1.2-1.7-2.7v-38.6c0-1.5.6-2.3 1.7-2.7.4-.1 1.6-.1 3.6-.1 1.9 0 2.8.9 2.8 2.8v38.6zm78.1-1.3c.1.4.1.7.1 1.1 0 1.1-.4 2.1-1.2 2.8s-1.7 1.1-2.8 1.1c-1.5 0-2.8-.7-3.8-2.2l-7.2-10.4h-34.1l-7.2 10.4c-.8 1.1-1.6 1.7-2.5 1.7-.5 0-1.1-.1-1.7-.4-1.5-.6-2.2-1.5-2.2-2.6 0-.3.1-.5.2-.7l25.5-39c1-1.5 2.6-2.3 5-2.4 1.9-.1 3.3.4 4.2 1.6.1.2.2.5.4.8l27.3 38.2zm-19.5-14.2l-12.2-18.1-12.3 18.1h24.5zM194.5 78.4V59.9c0-9.8-12.5-14.7-37.4-14.7h-90V92h94.7c21.8 0 32.6-4.5 32.7-13.6zm26.6-.3c0 13.2-6.9 22.9-20.8 28.9-11 4.5-23.8 6.7-38.2 6.7h-43.9l89.1 37.8c4.7 2.1 7.1 5.2 7.1 9.2 0 6-5.3 9-15.7 9-4.2 0-7.5-.3-9.9-1l-121.6-52V160c0 6.3-3.2 9.5-9.4 9.5-6.6 0-10.4-.3-11.5-.8-3.9-1.2-5.7-4.1-5.7-8.6V32.7c0-6.2 3.1-9.4 9.3-9.4h107.3c16.7 0 30.3 2.2 41.1 6.5 15.3 6.2 22.9 16.3 22.9 30.5l-.1 17.8zM512.4 32.3c0 1.5-.4 3-1.1 4.6L453.5 159c-3.6 7.2-9 10.8-16.6 10.8-7.3 0-12.6-3.4-15.7-10.1l-46.1-98.6-47.6 98.8c-2.9 5.8-8.1 8.8-15.6 8.8-8.1 0-13.6-3.1-16.5-9.4L238 36.8c-.8-1.5-1.1-2.9-1.1-4.1 0-3.2 1.6-5.7 4.9-7.6 2.9-1.6 5.9-2.4 9.4-2.4 5.7 0 9.6 2 11.5 6L312 133.3l46.8-100.5c3.4-7.2 8.7-10.8 16.1-10.8 2.6 0 5.6 1 8.8 3.1 3.2 2 5.4 4.2 6.6 6.7l47.5 101.5 48.6-104.5c1.9-4 6-6 12.5-6 3.2 0 6.2.7 8.9 2.2 3 1.8 4.6 4.2 4.6 7.3zM699.4 131.2c0 14.5-7.1 25-21.5 31.5-11.3 4.7-24.8 7.1-40.6 7.1H521.5c-6.2 0-9.3-3.2-9.3-9.5 0-8.3 3.2-12.5 9.3-12.5h115.9c23.6 0 35.4-5.2 35.4-15.5v-13.8c0-8.2-11.4-12.2-34.4-12.2h-117c-6.2 0-9.3-4.2-9.3-12.6 0-6.2 3.2-9.4 9.3-9.4h117.1c22.8 0 34.2-4.4 34.2-13.1V57.4c0-5.8-4.8-9.5-14.4-11.2-1.8-.3-4.5-.6-8-.7-3.5-.2-7.8-.2-13-.2h-24.1c-6.5 0-9.7-3.6-9.7-10.9 0-7.2 3.2-10.7 9.7-10.7H624.1c.5 0 .9 0 1-.1 2.7-.1 5-.1 7-.2 1.9 0 3.6-.1 4.9-.1 16.6 0 30 1.8 40.4 5.3C692 34 699.3 44 699.3 58.4c0 10.4-.3 17.2-1.1 20.3-1.5 6.6-5.4 12.1-11.3 16.2 5.9 4.5 9.7 9.9 11.3 16.2.8 2.2 1.2 9 1.2 20.1z" class="st0"/></g></svg>